<!--version="1.0" standalone="no"--><!DOCTYPE html PUBLIC "-//W3C//DTD SVG 20010904//EN" "http://www.w3.org/TR/2001/REC-SVG-20010904/DTD/svg10.dtd"><svg version="1.0" xmlns="http://www.w3.org/2000/svg" width="436.000000pt" height="573.000000pt" viewBox="0 0 436.000000 573.000000" preserveAspectRatio="xMidYMid meet" xmlns:xlink="http://www.w3.org/1999/xlink" zoomAndPan="magnify" contentScriptType="text/ecmascript" contentStyleType="text/css">
<metadata>
Created by potrace 1.16, written by Peter Selinger 2001-2019
</metadata>
<g transform="translate(0.000000,573.000000) scale(0.100000,-0.100000)" fill="#000000" stroke="2">
<path d="M2160 4990 c-30 -11 -66 -20 -81 -20 -25 0 -73 -13 -114 -30 -11 -5 -38 -12 -61 -15 -99 -15 -192 -104 -229 -217 -10 -29 -26 -62 -35 -73 -10 -11 -37 -58 -61 -105 -44 -87 -61 -114 -115 -178 -47 -56 -51 -69 -53 -178 -2 -96 14 -189 47 -275 6 -15 15 -77 21 -138 6 -62 14 -117 17 -123 5 -8 1 -9 -12 -3 -27 12 -76 12 -81 0 -2 -6 6 -11 18 -12 32 -3 88 -61 101 -105 12 -42 11 -47 -22 -53 -36 -7 -50 -25 -50 -68 0 -41 33 -107 53 -107 7 0 19 -10 27 -22 15 -23 16 -28 19 -50 1 -10 3 -10 9 0 5 7 8 20 7 30 -1 9 -5 42 -8 72 -4 30 -9 118 -12 195 -3 77 -11 175 -19 218 -8 43 -12 99 -10 125 5 46 22 102 34 112 4 3 17 46 29 95 22 85 39 124 67 152 7 7 22 25 34 40 17 22 23 25 30 13 6 -8 10 -23 10 -32 0 -10 7 -18 15 -18 21 0 19 -38 -5 -84 -18 -37 -18 -74 1 -45 7 11 9 11 9 -1 0 -9 -5 -21 -11 -27 -7 -7 -7 -13 -1 -17 9 -6 42 51 42 73 0 6 5 11 10 11 6 0 10 -7 10 -15 0 -8 4 -15 10 -15 5 0 7 7 3 15 -5 14 0 13 30 -2 27 -14 33 -22 26 -35 -6 -11 -4 -18 6 -22 10 -3 15 1 15 12 1 22 25 54 34 45 4 -4 4 0 1 8 -5 14 5 22 60 48 6 2 2 -5 -9 -17 -10 -12 -23 -19 -27 -16 -5 3 -9 -3 -9 -13 0 -11 -5 -24 -12 -31 -21 -21 7 -13 30 8 11 11 24 16 27 10 4 -6 15 -6 32 1 34 13 74 45 66 53 -11 11 -31 7 -48 -10 -12 -12 -19 -14 -27 -6 -8 8 -7 13 6 18 14 5 15 9 4 15 -10 7 -8 9 6 9 11 0 28 8 38 17 18 16 18 16 12 -1 -5 -14 -3 -17 7 -14 8 3 13 12 13 20 -2 18 65 45 75 30 9 -14 81 -11 81 4 0 7 -15 17 -32 24 l-33 12 32 14 c22 9 31 19 27 29 -7 18 -26 19 -42 3 -6 -6 -15 -8 -19 -3 -5 4 -2 10 5 12 6 3 12 9 12 14 0 6 -6 7 -12 4 -7 -4 -4 1 6 9 25 20 42 20 50 0 5 -14 9 -13 36 3 25 14 34 15 50 5 11 -6 23 -12 27 -12 5 0 0 5 -9 11 -10 5 -18 14 -18 18 0 14 37 20 49 8 8 -8 19 -5 40 11 28 21 29 21 34 2 4 -15 14 -20 44 -21 69 -3 81 -6 112 -30 16 -13 48 -35 70 -48 27 -17 47 -40 62 -70 11 -25 36 -71 55 -102 18 -31 35 -65 37 -75 2 -10 11 -35 20 -54 8 -19 13 -39 10 -44 -3 -4 0 -12 7 -16 18 -11 24 -126 12 -217 -19 -140 -25 -223 -14 -223 5 0 13 11 16 24 8 32 54 86 72 86 9 0 12 5 9 11 -4 6 -19 7 -35 4 l-29 -6 11 38 c6 21 16 74 23 118 7 44 27 117 44 163 32 86 55 243 44 306 -3 19 -1 36 6 40 6 4 11 29 11 56 0 54 -42 146 -85 186 -16 15 -25 34 -25 54 0 16 -5 30 -10 30 -6 0 -16 11 -22 25 -6 14 -17 24 -24 21 -7 -3 -14 4 -17 15 -6 23 -33 25 -54 3 -15 -15 -17 -14 -27 3 -34 58 -134 154 -191 183 -28 14 -69 38 -92 53 -132 86 -218 104 -323 67z"/>
<path d="M1730 3910 c0 -5 7 -6 17 -3 11 4 14 3 9 -5 -4 -7 -13 -12 -21 -12 -7 0 -22 -15 -34 -33 -11 -18 -31 -43 -45 -56 -14 -13 -23 -27 -21 -32 3 -4 1 -10 -5 -14 -15 -9 -12 -45 5 -51 8 -4 22 -1 30 6 12 10 15 10 15 0 0 -7 8 -10 20 -7 11 3 18 1 14 -4 -3 -5 0 -9 5 -9 6 0 11 5 11 10 0 6 10 10 23 10 13 0 28 5 34 11 9 9 23 9 57 -1 24 -7 49 -9 54 -6 5 3 15 -1 22 -9 7 -8 20 -15 30 -15 10 0 36 -7 59 -15 31 -10 41 -11 41 -2 0 7 6 4 14 -5 18 -24 29 -23 21 3 -5 16 -4 19 5 14 8 -5 11 -4 6 3 -4 6 -14 9 -24 6 -9 -2 -7 1 6 7 33 18 27 28 -13 19 -39 -9 -46 1 -15 23 l21 14 -21 6 c-11 3 -23 1 -26 -5 -4 -6 -10 -5 -15 3 -7 11 -9 9 -10 -6 0 -16 -3 -15 -10 7 -6 15 -19 30 -30 33 -10 4 -19 11 -19 16 0 5 -5 9 -11 9 -23 0 -79 33 -73 42 9 15 -19 29 -28 15 -6 -9 -12 -7 -23 7 -8 11 -15 14 -15 7 0 -7 -5 -9 -11 -6 -6 4 -8 13 -5 21 4 10 -2 14 -19 14 -14 0 -25 -4 -25 -10z"/>
<path d="M2605 3841 c3 -5 -21 -13 -52 -16 -83 -10 -133 -24 -133 -38 0 -7 -4 -6 -10 3 -8 12 -10 10 -10 -10 -1 -22 -2 -23 -11 -7 -5 9 -15 17 -21 17 -9 0 -9 -3 0 -12 20 -20 14 -28 -18 -21 -20 4 -30 2 -30 -7 0 -7 -7 -10 -16 -6 -9 3 -12 2 -9 -5 10 -14 14 -59 6 -59 -4 0 -7 -9 -7 -20 0 -11 7 -20 15 -20 8 0 11 3 8 7 -10 10 44 30 100 39 26 3 53 10 59 15 15 12 164 27 164 17 0 -4 8 -3 18 3 19 12 72 -3 72 -20 0 -5 9 -7 20 -4 43 11 -1 81 -85 134 -31 20 -70 26 -60 10z"/>
<path d="M2480 3654 c-43 -13 -178 -124 -152 -124 16 0 15 -37 0 -42 -8 -3 -9 -11 -3 -24 8 -18 9 -18 12 3 7 36 63 43 63 9 0 -20 50 -27 58 -8 3 9 0 18 -6 20 -46 15 28 25 194 25 54 0 61 2 57 18 -7 24 -69 64 -129 83 -48 14 -48 15 -14 15 19 0 54 -8 78 -19 23 -11 40 -15 36 -9 -12 20 -73 39 -126 39 -51 1 -52 1 -28 15 31 18 18 18 -40 -1z"/>
<path d="M1760 3647 c-20 -7 -36 -20 -38 -30 -4 -18 -2 -18 22 -2 13 9 35 15 48 13 19 -3 12 -9 -37 -33 -62 -31 -100 -77 -69 -83 9 -2 24 4 35 14 16 14 24 16 38 7 22 -14 141 -16 157 -2 13 11 44 2 44 -14 0 -6 -7 -18 -16 -28 -15 -17 -15 -18 9 -24 18 -5 31 -1 46 14 12 12 19 26 16 31 -4 6 -2 10 3 10 12 0 20 -21 15 -37 -3 -7 -9 -13 -14 -13 -6 0 -26 -16 -46 -35 -20 -19 -39 -35 -44 -35 -4 0 -5 -9 -2 -20 6 -24 18 -25 57 -5 36 19 42 19 26 0 -7 -8 -10 -21 -7 -29 3 -8 1 -17 -6 -20 -9 -3 -8 -7 2 -14 19 -13 6 -42 -18 -42 -25 0 -33 -26 -32 -98 0 -37 -5 -62 -15 -73 -12 -14 -13 -22 -4 -39 8 -15 8 -30 1 -51 -12 -34 6 -40 35 -11 17 16 17 16 12 -4 -4 -17 -2 -20 13 -17 13 4 20 -2 25 -21 4 -17 13 -26 28 -26 52 0 77 -6 85 -19 9 -14 31 -7 31 9 0 5 -7 16 -17 25 -14 14 -14 18 -2 26 8 5 29 8 47 6 21 -2 32 1 32 10 0 7 7 13 15 13 8 0 15 -4 15 -10 0 -5 7 -10 15 -10 8 0 15 -5 15 -11 0 -5 -5 -7 -10 -4 -18 11 -80 -18 -80 -36 0 -24 19 -34 26 -14 4 9 12 14 20 11 7 -3 14 0 16 6 3 8 10 7 26 -1 21 -11 22 -10 22 24 0 25 -4 35 -16 35 -9 0 -38 17 -64 38 l-48 38 43 17 c42 15 44 15 50 -3 8 -25 30 -32 60 -18 27 12 33 28 11 28 -8 0 -31 9 -50 21 l-35 21 -41 -23 c-28 -16 -45 -20 -54 -14 -69 51 -66 50 -100 31 -17 -9 -40 -14 -49 -10 -36 14 -34 104 3 104 19 0 70 63 70 87 0 7 7 13 15 13 9 0 12 -6 9 -17 -5 -14 -4 -15 4 -4 6 8 17 11 26 8 9 -4 16 -3 16 1 0 5 18 7 40 6 34 -2 39 0 29 12 -14 17 -39 19 -39 3 0 -6 -6 -9 -12 -7 -7 3 -13 13 -13 24 0 14 -6 18 -24 16 -13 -2 -28 2 -32 10 -13 19 -11 68 2 68 8 0 10 17 7 50 -6 56 -14 72 -28 50 -8 -13 -10 -12 -10 3 0 9 -3 17 -7 17 -5 0 -28 18 -52 39 -64 57 -167 77 -251 48z"/>
<path d="M1924 2906 c-22 -20 -35 -39 -32 -48 9 -21 170 -98 206 -98 18 0 32 5 32 11 0 6 -6 9 -12 6 -18 -6 -48 11 -48 28 0 16 38 29 67 23 19 -4 20 -9 9 -45 -5 -17 -3 -21 11 -18 10 2 21 4 24 4 4 1 10 8 13 17 3 8 2 12 -3 9 -5 -3 -12 -1 -16 4 -13 22 45 32 128 22 18 -2 4 -23 -24 -35 -20 -8 -27 -16 -20 -20 7 -4 18 -3 25 4 11 8 15 8 19 -2 4 -8 6 -7 6 5 1 10 9 17 21 17 11 0 23 7 27 16 3 8 11 13 19 10 7 -3 18 2 24 9 7 8 16 13 20 10 4 -3 10 7 13 20 5 30 -27 56 -37 29 -4 -11 -16 -14 -53 -10 -27 3 -84 6 -128 7 -83 1 -171 16 -192 32 -9 6 -13 6 -13 -2 0 -6 -14 -11 -30 -11 -28 0 -30 2 -20 20 15 28 8 25 -36 -14z"/>
<path d="M1687 2649 c-10 -11 -15 -25 -11 -31 4 -6 3 -8 -3 -5 -6 4 -16 0 -23 -8 -7 -9 -8 -15 -2 -15 14 0 2 -41 -14 -47 -10 -4 -10 -8 -1 -18 7 -8 16 -10 23 -4 8 6 10 2 6 -16 -4 -24 -6 -25 -22 -10 -22 20 -30 19 -30 -3 0 -31 -28 -48 -200 -115 -221 -88 -254 -103 -237 -110 8 -3 18 -2 23 3 5 4 27 15 49 24 l40 16 -24 -20 c-13 -11 -31 -20 -41 -20 -9 0 -25 -9 -36 -21 l-18 -20 -8 21 c-8 21 -10 20 -85 -19 -43 -22 -97 -45 -120 -51 -26 -6 -43 -17 -43 -25 0 -22 -44 -46 -81 -44 -37 3 -83 -18 -144 -64 -54 -41 -125 -109 -125 -120 0 -5 -9 -21 -20 -37 -11 -15 -17 -30 -14 -33 13 -13 -7 -45 -25 -40 -15 4 -25 -12 -55 -84 -31 -73 -126 -337 -126 -349 0 -2 11 -4 25 -4 18 0 31 10 45 33 26 42 26 27 0 -23 -22 -43 -26 -90 -9 -90 7 0 9 9 6 21 -4 13 -2 18 3 13 12 -12 29 -123 32 -206 2 -53 6 -68 18 -69 13 0 13 -1 0 -6 -24 -9 -30 -25 -30 -77 0 -43 4 -53 35 -81 31 -30 33 -34 18 -47 -14 -11 -16 -11 -11 3 4 11 1 16 -10 15 -11 -1 -22 19 -38 69 -13 39 -23 72 -24 75 -1 7 -20 -24 -20 -33 0 -5 4 -6 9 -3 4 3 1 -14 -8 -39 -8 -24 -17 -42 -19 -41 -10 11 -6 170 5 186 13 19 8 49 -11 62 -7 5 -7 8 2 8 6 0 12 9 12 20 0 27 -12 25 -40 -5 -33 -35 -37 -23 -6 18 27 35 34 81 15 93 -22 13 -38 -22 -42 -92 -3 -39 -10 -80 -16 -90 -10 -16 -11 -12 -8 24 7 58 -15 55 -35 -5 -9 -27 -33 -94 -53 -150 -34 -95 -36 -104 -20 -119 19 -19 14 -26 -17 -28 -18 -1 -27 -14 -49 -71 -15 -38 -25 -78 -22 -89 3 -10 1 -16 -4 -13 -5 3 -19 -14 -31 -39 -21 -42 -22 -58 -22 -289 0 -157 4 -245 10 -245 6 0 10 -5 10 -11 0 -5 -5 -7 -10 -4 -6 3 -10 1 -10 -5 0 -6 20 -20 45 -31 40 -18 65 -20 290 -18 198 1 245 4 245 14 0 8 5 17 11 21 8 4 9 0 4 -15 l-6 -21 386 0 c302 1 385 3 377 13 -33 42 -81 150 -80 181 1 42 -16 66 -48 66 -33 0 -55 -39 -63 -108 -5 -42 -9 -51 -14 -36 -4 12 -1 47 8 80 8 32 16 74 16 94 1 23 3 27 6 13 3 -16 11 -23 28 -23 13 0 26 4 30 9 8 14 -16 61 -31 61 -17 0 -36 34 -29 53 8 19 -18 39 -40 31 -14 -6 -16 -16 -13 -55 3 -27 1 -46 -4 -43 -4 3 -8 17 -8 32 0 43 -21 107 -30 93 -5 -10 -9 -9 -13 4 -5 10 -3 14 4 9 7 -4 10 -1 7 7 -3 8 -10 13 -15 12 -5 -1 -17 20 -27 48 -10 27 -24 49 -32 49 -7 0 -16 11 -19 25 -3 14 -7 36 -10 49 -3 14 -1 28 5 31 16 10 11 53 -7 65 -15 8 -14 9 9 6 37 -6 55 17 38 49 -7 13 -18 21 -25 19 -7 -3 -15 2 -18 10 -8 21 -1 20 39 -4 35 -22 55 -73 35 -93 -6 -6 -11 -19 -11 -28 0 -10 -4 -21 -10 -24 -5 -3 -7 0 -4 9 3 8 3 20 -1 27 -9 14 -35 -55 -34 -91 0 -23 1 -23 9 -5 9 19 9 19 16 -3 7 -25 24 -30 24 -6 0 27 20 4 21 -24 0 -15 3 -21 6 -14 4 10 8 10 19 1 8 -6 14 -16 14 -21 0 -6 -7 -5 -15 2 -8 7 -15 8 -15 2 0 -5 6 -15 14 -21 10 -9 16 -8 25 3 10 12 6 25 -17 66 -18 32 -32 47 -35 38 -3 -7 -6 4 -6 25 -1 20 4 37 9 37 6 0 10 -9 10 -20 0 -24 13 -26 30 -5 7 9 29 15 52 15 25 0 41 5 44 15 4 8 10 12 15 9 5 -3 10 0 10 5 1 6 2 16 3 21 2 18 20 12 28 -10 6 -17 5 -21 -6 -17 -18 7 -24 -14 -20 -63 1 -19 3 -41 3 -47 2 -21 30 -15 76 17 51 35 57 36 48 12 -10 -25 -26 -39 -41 -34 -6 2 -12 -1 -12 -6 0 -9 -65 -28 -83 -24 -4 1 -6 -1 -5 -5 1 -5 -5 -21 -15 -38 l-16 -30 -1 36 c0 21 7 42 15 49 8 7 15 21 15 31 0 20 -36 49 -60 49 -25 0 -54 -25 -45 -40 6 -10 9 -9 16 1 4 7 11 10 16 6 4 -4 3 -15 -3 -24 -14 -23 0 -110 22 -134 9 -11 26 -19 36 -19 15 0 18 5 14 23 -5 18 -4 18 5 -3 6 -14 15 -33 20 -42 5 -10 9 -29 9 -42 0 -14 5 -28 10 -31 6 -3 10 -14 9 -23 0 -12 -3 -9 -10 7 -5 13 -12 22 -14 19 -9 -9 14 -58 30 -65 48 -18 95 48 95 133 0 36 3 44 13 36 29 -25 74 -134 80 -195 3 -27 9 -53 15 -59 10 -10 44 -13 71 -7 8 2 17 -4 19 -13 3 -15 -3 -18 -33 -18 -31 0 -36 -3 -30 -17 4 -10 10 -26 12 -35 3 -10 9 -18 14 -18 5 0 9 -4 9 -10 0 -18 -29 -10 -40 11 -15 28 -23 18 -11 -13 5 -14 22 -30 38 -36 25 -8 32 -6 50 12 11 11 23 31 27 44 8 23 26 31 26 10 0 -6 3 -9 6 -5 6 6 34 -16 34 -27 0 -3 -10 -6 -23 -6 -35 0 -55 -21 -61 -62 l-6 -38 48 0 c41 0 49 4 64 29 9 16 26 35 38 41 15 8 20 8 16 1 -4 -6 -2 -11 4 -11 6 0 9 -4 6 -9 -3 -5 1 -12 10 -15 13 -5 14 -9 4 -21 -11 -13 -7 -15 28 -15 38 0 40 2 36 26 -3 16 -1 23 6 19 6 -3 10 3 10 15 0 20 1 20 30 5 31 -16 54 -48 43 -59 -3 -3 26 -6 65 -6 67 0 100 13 73 29 -7 5 -9 15 -5 26 5 12 4 16 -3 12 -6 -4 -18 2 -28 13 -10 11 -24 20 -32 20 -7 0 -16 7 -19 15 -4 8 -10 15 -16 15 -5 0 -6 -4 -3 -10 3 -5 -3 -10 -14 -10 -19 0 -20 1 -5 18 10 13 25 17 45 14 28 -4 41 -22 17 -22 -7 -1 4 -10 26 -21 21 -12 48 -32 60 -46 19 -22 24 -23 51 -13 17 6 36 18 42 27 8 10 13 12 13 5 0 -7 8 -12 18 -12 10 0 19 -7 19 -15 0 -18 -18 -20 -34 -4 -8 8 -17 7 -35 -6 l-23 -16 25 1 c43 4 56 -2 25 -10 -16 -4 176 -8 427 -9 300 -1 459 2 463 9 4 6 11 8 16 5 5 -4 9 -2 9 3 0 10 50 35 57 28 3 -2 -5 -9 -16 -16 -12 -6 -21 -15 -21 -20 0 -6 178 -10 480 -10 l480 0 41 27 c23 15 87 39 143 53 l101 27 3 71 c2 42 -1 72 -7 72 -5 0 -13 25 -16 55 -6 43 -11 55 -25 55 -9 0 -24 8 -34 18 -15 18 -15 20 2 35 30 27 52 22 52 -12 0 -35 9 -61 20 -61 5 0 8 29 7 65 -1 43 -4 62 -11 55 -6 -6 -15 -10 -21 -10 -15 0 -35 44 -35 73 1 21 1 21 24 -4 l23 -26 12 48 c12 45 11 51 -18 112 -17 36 -31 70 -31 76 0 21 -20 11 -21 -11 -1 -17 -2 -19 -6 -5 -2 9 -9 17 -14 17 -5 0 -9 7 -9 16 0 11 6 15 19 11 18 -4 18 -3 3 33 -12 27 -21 36 -34 32 -12 -3 -18 1 -18 13 0 11 5 15 15 12 12 -5 12 -2 3 21 -7 15 -18 34 -25 42 -11 12 -13 11 -13 -7 0 -12 5 -45 11 -73 6 -28 9 -54 6 -56 -4 -4 -52 56 -122 154 -9 13 -19 21 -22 18 -3 -3 0 -12 7 -21 7 -9 10 -18 7 -21 -3 -3 -10 4 -17 15 -6 12 -15 19 -21 16 -5 -4 -9 -1 -9 4 0 6 7 11 15 11 8 0 15 5 15 11 0 8 6 7 17 -2 15 -13 15 -12 4 9 -16 30 -37 38 -57 21 -14 -11 -16 -27 -11 -88 l6 -75 -29 31 c-16 17 -43 52 -59 78 -27 43 -30 45 -36 23 -4 -13 -12 -26 -18 -30 -7 -4 -6 -12 3 -23 12 -14 12 -18 -1 -25 -11 -7 -17 0 -27 28 -7 20 -21 44 -32 52 -30 23 -16 60 23 60 17 0 28 3 24 6 -3 3 3 15 13 27 20 21 17 48 -3 28 -19 -19 -26 -12 -14 18 9 25 14 28 34 20 14 -5 22 -5 19 0 -3 5 3 11 14 14 13 3 20 14 20 29 0 18 -2 20 -10 8 -7 -11 -10 -4 -10 28 0 30 -4 42 -14 42 -23 0 -28 17 -6 23 16 4 30 -9 65 -59 25 -36 45 -67 45 -71 0 -11 48 -62 54 -56 3 4 6 1 6 -5 0 -17 -10 -15 -33 5 -19 18 -20 17 -8 -5 8 -16 20 -22 34 -20 18 2 23 11 27 51 3 26 2 47 -3 47 -4 0 -5 5 -2 10 3 6 1 10 -5 10 -6 0 -9 4 -5 9 5 10 -165 444 -172 437 -2 -2 -6 -16 -9 -32 -9 -50 -23 -63 -24 -21 0 38 -13 49 -24 21 -4 -11 -14 -15 -31 -12 -14 3 -26 0 -29 -8 -6 -14 -47 -19 -59 -7 -4 4 6 12 22 19 23 10 31 21 37 50 4 23 2 44 -5 56 -6 10 -17 28 -23 41 -7 12 -17 25 -23 29 -5 4 0 8 12 8 12 0 25 -4 28 -10 10 -15 25 -12 32 8 4 9 11 20 15 23 12 8 -23 80 -35 72 -6 -3 -7 -1 -3 6 14 22 -92 146 -170 199 -62 42 -256 124 -267 113 -14 -14 -48 -14 -67 0 -11 8 -7 9 18 6 18 -2 35 -1 37 3 2 3 -44 30 -101 58 -58 29 -103 48 -99 42 3 -5 -1 -10 -10 -10 -12 0 -15 5 -11 16 5 12 -16 25 -87 58 -50 24 -123 53 -162 66 -98 32 -124 47 -137 78 l-10 27 -11 -23 c-7 -16 -7 -33 1 -58 13 -42 7 -64 -17 -64 -15 0 -17 11 -16 80 0 44 3 80 8 80 12 0 8 35 -5 49 -11 10 -9 11 5 5 17 -6 17 -5 1 30 -24 49 -38 46 -30 -6 3 -24 3 -55 -2 -71 -10 -38 -71 -98 -134 -132 -29 -16 -59 -35 -66 -42 -7 -7 -25 -13 -40 -13 -33 0 -110 -37 -121 -58 -20 -40 -21 -70 -4 -75 15 -4 15 -6 -4 -12 -29 -9 -29 -25 -1 -49 l21 -18 -31 -14 c-18 -7 -32 -18 -32 -24 0 -6 -10 -10 -22 -8 -18 2 -23 10 -25 33 0 17 -2 38 -2 48 -1 9 -4 16 -8 16 -31 -5 -55 3 -50 15 3 8 -1 17 -9 20 -8 3 -14 13 -14 23 0 19 -58 79 -100 104 -14 8 -50 21 -80 28 -83 20 -156 60 -202 109 -40 43 -40 45 -34 101 7 68 -2 89 -27 60z m1638 -519 c3 -6 -1 -7 -10 -4 -8 4 -22 1 -30 -6 -18 -15 -21 -55 -3 -44 7 5 8 3 3 -5 -4 -8 1 -18 14 -27 17 -13 19 -18 9 -40 -6 -14 -17 -23 -24 -20 -8 3 -16 0 -20 -6 -4 -7 -3 -8 4 -4 8 5 12 -3 12 -26 l0 -33 -25 30 c-27 33 -31 30 -13 -10 6 -14 17 -25 25 -25 7 0 13 -6 13 -14 0 -17 38 -66 52 -66 7 0 9 16 5 43 -5 40 -5 41 8 17 8 -14 14 -42 15 -63 0 -33 -2 -36 -16 -25 -21 17 -55 51 -73 73 -11 14 -15 14 -22 3 -7 -10 -9 -10 -9 2 0 13 -1 13 -11 0 -8 -12 -9 -10 -4 7 8 29 -29 42 -55 18 -18 -16 -19 -16 -18 14 1 36 -17 61 -43 61 -14 0 -19 -8 -20 -27 0 -25 -1 -26 -9 -8 -4 11 -6 36 -3 55 4 27 0 40 -16 54 -21 19 -29 42 -11 31 6 -3 10 -2 10 2 0 5 -12 14 -27 21 -25 10 -26 11 -3 5 14 -3 32 -12 41 -19 19 -17 41 -18 56 -3 8 8 14 1 23 -25 6 -20 20 -41 30 -46 27 -14 35 5 16 35 -18 27 -17 28 8 19 10 -4 16 -18 16 -39 0 -41 12 -50 42 -33 13 7 25 14 26 15 2 1 -4 16 -14 33 -12 19 -24 28 -33 25 -9 -3 -12 -3 -8 1 4 4 -5 13 -20 21 -21 11 -28 11 -35 1 -6 -11 -8 -11 -8 0 0 22 27 24 56 5 20 -13 29 -14 32 -5 11 33 54 54 67 32z m-2395 -84 c-6 -6 -10 -15 -10 -20 0 -6 5 -4 10 4 11 17 11 15 14 -75 1 -48 2 -50 32 -53 38 -4 51 11 73 84 13 41 20 52 25 38 4 -9 3 -20 -1 -23 -12 -9 -35 -73 -37 -101 -1 -18 5 -26 20 -28 31 -4 45 19 34 57 -8 29 -7 31 6 20 13 -10 17 -10 25 2 5 8 9 9 9 4 0 -6 -4 -15 -10 -21 -5 -5 -13 -31 -16 -56 -6 -42 -4 -47 20 -63 26 -17 28 -17 57 4 l29 22 0 -26 c0 -33 26 -43 45 -19 14 18 14 17 6 -6 -10 -29 -48 -39 -57 -16 -4 10 -18 16 -40 16 -38 0 -38 1 -24 -34 7 -20 17 -26 39 -26 18 0 34 -7 40 -17 8 -14 12 -15 25 -4 9 7 16 9 16 3 0 -5 -7 -16 -16 -23 -9 -7 -20 -24 -25 -37 -5 -14 -12 -22 -15 -19 -3 3 -1 14 5 25 7 14 6 24 -5 40 -30 43 -75 14 -55 -35 22 -53 39 -147 22 -123 -5 8 -13 33 -17 55 -3 22 -11 46 -17 53 -5 7 -10 36 -11 64 -1 57 -17 75 -58 65 -29 -8 -46 -41 -56 -112 l-7 -49 -23 46 c-15 29 -26 72 -30 119 -6 62 -10 75 -29 85 -17 8 -20 13 -11 22 9 9 7 12 -7 12 -19 1 -19 1 -2 14 24 18 22 23 -10 23 -16 0 -38 4 -51 8 -21 7 -23 5 -16 -21 9 -39 22 -54 48 -55 13 -1 8 -4 -14 -10 -27 -6 -38 -4 -47 7 -16 22 -26 1 -18 -39 17 -82 26 -87 43 -22 7 25 16 45 22 45 9 0 4 -26 -10 -45 -4 -5 -11 -30 -15 -54 l-7 -45 -19 35 c-10 18 -18 44 -19 56 0 12 -4 25 -10 28 -15 9 -12 50 7 83 19 34 12 62 -17 62 -11 0 -20 5 -20 11 0 5 -6 7 -12 3 -10 -5 -10 -3 0 7 11 12 14 12 22 -1 5 -8 10 -11 10 -6 0 5 9 1 20 -9 13 -12 20 -14 20 -5 0 10 3 10 15 0 23 -19 79 18 83 55 2 17 5 37 8 45 4 13 6 13 14 0 6 -9 5 -19 0 -24z m1357 -82 c16 -4 22 -15 25 -45 2 -21 -1 -39 -6 -39 -5 0 -1 -9 10 -21 14 -16 15 -22 5 -28 -9 -6 -11 -18 -7 -38 5 -22 1 -41 -16 -69 -12 -21 -25 -41 -29 -44 -7 -6 -19 -41 -18 -54 1 -12 -23 -26 -34 -19 -5 3 -3 9 4 14 11 7 11 9 1 9 -9 0 -11 7 -7 19 3 11 1 22 -5 26 -5 3 -10 26 -10 51 0 31 -4 44 -14 44 -17 0 -73 113 -59 117 6 2 8 14 6 26 -4 17 2 26 22 35 15 7 30 10 34 8 4 -3 13 -1 21 5 17 10 45 11 77 3z m-936 -125 c10 -29 21 -75 24 -101 5 -41 10 -49 32 -54 14 -4 34 -2 43 4 13 8 21 7 29 -1 18 -18 13 -24 -29 -31 -39 -6 -39 -7 -27 -34 6 -15 16 -30 21 -33 4 -4 6 -13 4 -20 -3 -10 -13 -5 -31 15 -30 32 -38 16 -11 -22 18 -26 31 -28 56 -5 18 16 26 6 10 -12 -5 -6 11 9 34 32 23 23 44 53 46 65 4 27 41 33 60 10 11 -13 10 -14 -10 -8 -12 4 -21 3 -20 -1 2 -5 -10 -21 -26 -35 -24 -20 -31 -36 -36 -81 -3 -31 -3 -55 0 -55 3 1 13 -2 23 -7 28 -12 70 11 64 35 -3 11 -1 20 4 20 5 0 9 -9 9 -19 0 -38 -11 -51 -46 -51 -23 0 -34 -5 -34 -14 0 -8 -5 -18 -12 -22 -7 -5 -9 -2 -5 9 3 8 0 18 -8 21 -10 4 -16 -8 -21 -42 -6 -39 -8 -43 -15 -24 -11 28 -17 28 -29 -3 -6 -15 -15 -23 -24 -19 -11 4 -9 10 8 29 18 19 61 135 50 135 -16 0 -34 -16 -34 -31 0 -18 -1 -18 -20 -1 -66 57 -63 52 -57 104 5 42 4 49 -9 44 -9 -3 -20 -6 -25 -6 -15 0 -31 -49 -38 -115 l-6 -59 -19 28 c-10 16 -20 47 -22 70 l-4 41 11 -44 c13 -52 25 -44 33 22 9 63 0 90 -25 84 -11 -3 -19 0 -19 8 0 22 30 25 50 5 14 -14 27 -18 50 -14 35 7 34 5 18 39 -9 21 -17 25 -35 20 -16 -4 -28 1 -40 14 -9 11 -20 18 -25 15 -12 -8 -10 4 6 29 8 12 20 46 27 75 7 29 17 51 23 49 5 -2 17 -28 27 -58z m1995 -82 c8 -4 18 -6 23 -2 5 3 12 1 16 -5 10 -15 55 -12 61 5 10 25 22 17 16 -10 -3 -16 2 -33 13 -45 19 -21 55 -27 55 -10 0 22 -43 140 -51 140 -5 0 -9 8 -9 18 1 15 2 15 16 -3 8 -11 19 -38 25 -60 6 -22 14 -44 19 -50 4 -5 10 -36 12 -68 5 -62 16 -77 56 -77 15 0 22 -5 19 -12 -2 -7 -14 -12 -25 -10 -12 2 -22 1 -22 -1 0 -16 24 -67 31 -67 5 0 9 -5 9 -10 0 -24 -38 11 -43 39 -5 22 -14 32 -33 37 -34 9 -50 -9 -67 -74 -12 -49 -14 -51 -25 -30 -44 89 -64 241 -26 204 8 -8 22 -17 32 -21 11 -3 25 -16 32 -29 14 -27 75 -44 65 -18 -3 7 -8 24 -11 37 -4 15 -15 25 -33 28 -16 4 -32 16 -39 31 -9 20 -19 26 -41 26 -25 0 -29 -3 -24 -17 3 -10 -4 -6 -16 10 -12 15 -28 27 -36 27 -14 0 -45 -68 -45 -103 -1 -21 -1 -21 -15 -3 -8 10 -17 39 -21 65 -3 25 -10 63 -15 84 -6 21 -7 47 -4 57 5 17 12 14 47 -28 22 -26 47 -51 54 -55z m-410 -3 c-8 -21 10 -51 35 -59 17 -6 19 -9 8 -17 -10 -7 -8 -8 9 -5 15 4 22 0 22 -9 0 -8 -6 -14 -14 -12 -8 2 -14 0 -13 -3 1 -3 -4 -13 -12 -22 -9 -12 -11 -30 -7 -60 5 -35 11 -43 28 -44 13 -1 26 3 30 10 4 6 10 8 14 4 10 -10 -16 -37 -36 -37 -18 0 -70 53 -70 70 0 5 -21 10 -46 12 -38 2 -51 9 -68 31 -16 21 -18 32 -10 45 15 23 38 22 42 -3 2 -16 1 -17 -7 -5 -8 12 -12 13 -23 2 -11 -11 -9 -16 7 -28 24 -18 75 -13 112 11 l24 16 -31 29 c-16 15 -30 35 -30 43 0 27 12 47 27 47 10 0 13 -6 9 -16z m-999 -122 c17 -18 35 -34 40 -34 4 0 18 -4 31 -9 32 -12 56 -11 70 3 7 7 12 10 13 8 8 -48 8 -60 -2 -60 -8 0 -8 -4 1 -15 13 -16 50 -21 50 -7 0 4 -7 18 -16 30 -9 13 -11 22 -4 22 6 0 15 -12 20 -27 6 -16 15 -36 21 -47 8 -14 8 -16 -3 -10 -7 5 -21 7 -31 6 -10 -2 -33 7 -50 20 -53 40 -61 43 -48 20 14 -27 14 -35 -1 -26 -7 4 -8 3 -4 -5 4 -6 11 -9 16 -6 5 3 16 -8 25 -24 8 -16 25 -37 37 -45 12 -9 18 -16 12 -16 -6 0 -11 -6 -12 -12 -1 -7 -9 -43 -19 -80 -18 -66 -18 -67 -30 -40 -14 33 -48 137 -57 174 -3 15 -2 30 4 33 5 3 10 14 9 23 0 12 -3 11 -9 -5 -5 -13 -15 -23 -21 -23 -8 0 -8 4 1 15 27 33 -23 126 -75 139 -14 4 -23 11 -20 15 3 5 -4 7 -14 4 -16 -4 -19 -1 -14 15 4 17 8 18 27 8 12 -6 36 -26 53 -44z m281 -322 c43 -35 72 -7 88 84 l7 40 19 -24 c10 -12 23 -42 29 -67 6 -24 15 -46 20 -49 5 -3 9 -31 9 -63 0 -68 22 -97 65 -89 19 4 29 0 36 -15 11 -19 9 -20 -34 -15 l-44 5 10 -36 c6 -20 16 -39 21 -43 6 -4 7 -10 3 -14 -10 -11 -37 16 -37 37 0 11 -4 19 -9 19 -19 0 -19 -15 -2 -51 10 -19 16 -40 13 -47 -2 -7 1 -12 7 -12 6 0 11 4 11 10 0 5 10 9 23 7 14 -1 21 3 19 11 -1 8 2 11 7 8 5 -4 12 -2 16 4 4 6 10 8 14 6 4 -3 14 6 21 19 7 13 16 22 21 20 4 -3 5 4 2 15 -6 22 8 26 38 10 27 -15 24 -26 -12 -36 -44 -13 -74 -56 -73 -104 1 -26 -2 -37 -9 -33 -6 4 -2 -10 10 -29 19 -33 20 -38 6 -49 -12 -11 -14 -10 -11 6 1 10 -2 20 -8 22 -7 2 -15 -14 -19 -39 -4 -24 -10 -35 -12 -25 -4 16 -14 21 -40 18 -6 -1 0 21 15 51 49 101 48 98 33 98 -5 0 -17 -7 -25 -16 -14 -14 -18 -13 -41 13 -29 32 -39 63 -33 98 4 16 0 25 -11 28 -9 3 -3 5 12 6 34 1 26 21 -8 21 -32 0 -53 -33 -68 -108 -12 -58 -13 -60 -24 -34 -29 71 -53 166 -53 213 0 62 -21 94 -51 78 -16 -8 -19 -6 -19 11 0 14 7 20 21 20 19 0 21 4 15 33 -4 17 -11 34 -16 35 -13 5 -13 32 0 32 6 0 11 10 11 23 1 12 5 -2 8 -32 5 -38 13 -59 29 -71z m1142 -28 c11 -25 20 -59 20 -76 0 -21 3 -27 9 -18 6 10 10 9 14 -7 6 -25 45 -29 53 -6 9 24 22 8 16 -20 -9 -50 -95 -42 -108 10 -6 24 -7 25 -25 9 -22 -20 -43 -79 -35 -99 3 -8 1 -17 -4 -20 -12 -8 -23 50 -15 85 4 17 2 30 -3 30 -31 0 -56 90 -32 114 6 6 7 -3 4 -25 -5 -30 -3 -36 19 -46 58 -26 100 41 60 96 -33 45 -38 57 -14 37 12 -11 31 -40 41 -64z m-1743 -20 c13 -16 9 -32 -8 -32 -6 0 -7 5 -3 11 9 16 -18 30 -33 17 -17 -13 -16 -92 0 -140 l13 -37 27 35 c16 19 36 34 45 34 27 0 64 -30 58 -47 -3 -8 -1 -11 4 -8 6 4 10 -5 10 -20 l0 -27 -30 32 c-25 26 -32 30 -50 20 -11 -6 -20 -15 -20 -21 0 -6 -4 -7 -10 -4 -6 4 -10 -8 -10 -29 0 -20 -5 -36 -11 -36 -6 0 -10 -15 -8 -37 3 -46 -16 -89 -43 -96 -10 -3 -18 -2 -16 1 25 47 41 95 42 134 1 26 -1 45 -6 42 -4 -3 -10 7 -14 21 -5 22 -11 26 -38 23 -19 -2 -30 -8 -28 -16 1 -8 -2 -11 -7 -8 -14 9 -23 -42 -10 -65 9 -17 8 -20 -3 -17 -7 3 -14 19 -16 36 -3 25 4 39 27 62 16 17 36 30 45 30 12 0 13 6 6 32 -11 36 -3 81 13 71 6 -3 7 -1 3 5 -4 6 -4 23 0 36 5 22 10 25 33 20 14 -4 31 -13 38 -22z m385 -339 c3 -37 5 -39 63 -59 36 -13 64 -18 71 -13 7 5 11 3 11 -7 0 -11 -7 -13 -27 -9 -18 4 -34 -1 -52 -14 -14 -11 -28 -18 -31 -15 -3 3 -3 -4 0 -17 5 -16 3 -20 -6 -14 -16 9 -7 -28 15 -62 17 -27 27 -29 49 -7 9 9 18 14 21 11 8 -8 -34 -47 -51 -47 -22 0 -57 39 -51 56 6 17 4 17 -44 3 -53 -16 -86 -6 -99 31 -11 34 -7 56 14 64 16 6 41 -21 30 -32 -4 -4 -10 -1 -12 6 -7 17 -23 5 -23 -18 0 -43 80 -30 131 21 19 19 19 20 -16 50 -36 32 -43 56 -25 90 16 30 28 23 32 -18z m1322 -193 c10 -36 17 -77 17 -92 0 -15 4 -30 9 -33 6 -4 10 2 10 12 0 14 3 12 14 -7 14 -27 9 -51 -6 -29 -7 10 -8 5 -3 -14 4 -21 2 -27 -6 -21 -7 4 -10 2 -7 -7 15 -44 64 39 68 116 l2 30 11 -27 c13 -33 23 -35 32 -8 10 31 35 25 35 -8 0 -23 -4 -28 -21 -28 -17 1 -22 -6 -24 -34 -1 -19 -5 -48 -9 -65 -5 -23 -4 -25 3 -10 7 14 10 16 11 5 1 -8 6 1 11 20 4 19 6 44 3 55 -4 16 -3 17 5 5 6 -8 11 -36 11 -61 0 -42 -3 -48 -25 -53 -16 -4 -25 -13 -25 -26 0 -26 17 -34 29 -13 9 16 10 15 11 -8 0 -18 -6 -28 -20 -32 -22 -6 -26 -28 -9 -59 9 -17 8 -23 -5 -30 -9 -5 -14 -13 -11 -18 3 -5 1 -11 -4 -14 -9 -6 -7 -93 3 -103 3 -4 6 -18 6 -32 0 -18 -3 -22 -11 -14 -10 10 -12 29 -17 141 -1 19 -6 31 -12 27 -5 -3 -10 1 -10 9 0 9 5 16 10 16 6 0 10 7 10 16 0 8 5 12 10 9 6 -3 10 1 10 9 0 26 -19 18 -40 -16 -14 -22 -18 -42 -14 -60 4 -23 3 -27 -10 -22 -11 4 -20 -3 -28 -22 l-12 -29 -3 40 c-5 70 -8 215 -5 215 1 0 7 -10 12 -22 9 -21 9 -20 7 7 -1 22 -8 31 -24 33 -25 4 -45 -34 -65 -120 -11 -46 -12 -46 -24 -23 -6 13 -15 43 -19 67 -3 24 -11 67 -17 95 -10 45 -9 56 5 71 12 13 15 33 13 75 -2 31 -1 57 1 57 3 0 14 -11 25 -26 19 -24 21 -24 39 -8 18 17 27 40 11 30 -4 -2 -3 27 2 66 11 76 12 75 40 -32z m-772 -68 c-7 -2 -12 -8 -12 -13 0 -4 7 -6 15 -3 8 4 22 1 30 -6 17 -14 20 -40 4 -40 -5 0 -8 4 -5 8 8 14 -11 35 -28 29 -29 -11 -31 -57 -6 -130 19 -55 25 -65 31 -49 4 12 17 25 28 31 24 13 64 15 57 2 -3 -5 1 -14 9 -21 8 -7 15 -22 15 -33 0 -20 -1 -20 -13 -3 -10 14 -21 17 -45 11 -28 -6 -32 -10 -32 -41 0 -19 -4 -34 -8 -34 -9 0 -11 -8 -13 -57 -2 -40 -17 -63 -40 -63 l-21 0 21 36 c13 21 21 52 21 79 0 36 -6 50 -35 80 -22 24 -40 35 -50 31 -9 -3 -13 -2 -10 4 3 6 1 10 -6 10 -8 0 -10 -14 -6 -45 5 -51 1 -53 -12 -7 -12 40 11 76 45 69 22 -4 23 -2 17 38 -7 56 21 137 45 127 10 -4 12 -7 4 -10z m1166 -4 c14 -14 16 -38 2 -38 -5 0 -7 7 -3 16 4 12 0 15 -18 12 -21 -3 -24 -8 -24 -50 0 -25 3 -44 7 -42 3 2 16 -12 29 -32 l22 -36 13 30 c13 32 48 57 64 47 17 -11 11 -43 -7 -41 -22 1 -56 -84 -54 -137 1 -38 -13 -77 -27 -77 -9 0 -8 58 1 67 14 13 6 61 -13 86 -11 14 -20 30 -20 36 0 15 -53 14 -70 -1 -12 -11 -12 -10 0 5 10 13 23 18 47 15 20 -3 32 0 30 6 -2 6 -10 11 -18 11 -8 0 -20 19 -28 42 -12 33 -12 47 -3 67 13 28 49 35 70 14z m344 -108 c-2 -17 1 -36 7 -44 15 -18 102 -18 123 1 21 19 58 11 75 -15 10 -17 8 -18 -34 -15 -56 6 -93 -23 -93 -72 0 -41 42 -84 64 -66 8 7 12 20 9 29 -6 15 -5 15 10 3 15 -12 16 -17 4 -35 -20 -29 -45 -31 -79 -6 l-29 21 -26 -20 c-31 -25 -51 -26 -75 -4 -22 19 -23 46 -4 62 11 9 16 9 22 0 4 -7 2 -15 -4 -17 -17 -5 -15 -32 3 -32 33 0 84 89 57 98 -49 16 -69 72 -42 121 15 28 17 26 12 -9z m-3768 -92 c9 -12 16 -33 16 -45 0 -19 5 -23 29 -23 59 0 98 -63 61 -100 -22 -22 -40 -19 -40 8 0 15 2 15 10 2 8 -13 11 -13 27 2 16 17 16 19 -2 33 -23 18 -96 15 -119 -4 -13 -11 -13 -17 0 -46 15 -37 8 -71 -20 -94 -22 -18 -32 -7 -19 21 12 27 -3 68 -24 68 -7 0 -13 6 -13 13 0 21 -35 48 -53 42 -10 -4 -17 1 -22 14 -3 12 -10 21 -15 21 -4 0 -6 9 -3 19 4 18 8 16 39 -15 41 -40 77 -44 111 -12 43 40 22 124 -22 88 -12 -10 -15 -10 -15 3 0 32 53 35 74 5z"/>
</g>
</svg>